<svg width="18" height="18" viewBox="0 0 18 18" fill="none" xmlns="http://www.w3.org/2000/svg">
<path fill-rule="evenodd" clip-rule="evenodd" d="M5.80969 12.1675C5.80969 11.8569 6.06153 11.605 6.37219 11.605H11.7872C12.0979 11.605 12.3497 11.8569 12.3497 12.1675C12.3497 12.4782 12.0979 12.73 11.7872 12.73H6.37219C6.06153 12.73 5.80969 12.4782 5.80969 12.1675Z" fill="#6D7175" stroke="#6D7175" stroke-linecap="round" stroke-linejoin="round"/>
<path fill-rule="evenodd" clip-rule="evenodd" d="M5.80969 9.02768C5.80969 8.71702 6.06153 8.46518 6.37219 8.46518H11.7872C12.0979 8.46518 12.3497 8.71702 12.3497 9.02768C12.3497 9.33834 12.0979 9.59018 11.7872 9.59018H6.37219C6.06153 9.59018 5.80969 9.33834 5.80969 9.02768Z" fill="#6D7175" stroke="#6D7175" stroke-linecap="round" stroke-linejoin="round"/>
<path fill-rule="evenodd" clip-rule="evenodd" d="M5.80981 5.89508C5.80981 5.58442 6.06165 5.33258 6.37231 5.33258H8.43856C8.74922 5.33258 9.00106 5.58442 9.00106 5.89508C9.00106 6.20574 8.74922 6.45758 8.43856 6.45758H6.37231C6.06165 6.45758 5.80981 6.20574 5.80981 5.89508Z" fill="#6D7175" stroke="#6D7175" stroke-linecap="round" stroke-linejoin="round"/>
<path fill-rule="evenodd" clip-rule="evenodd" d="M11.9315 1.49985C13.1018 1.49985 14.1018 1.88606 14.8086 2.61556C15.5133 3.34287 15.8742 4.35722 15.8742 5.5176V12.4146C15.8742 13.5695 15.5159 14.5793 14.817 15.3054C14.116 16.0338 13.124 16.4229 11.9627 16.4301L11.9592 16.4301L6.19297 16.4323C5.02264 16.4323 4.02233 16.0461 3.31569 15.3166C2.6112 14.5892 2.25049 13.5749 2.25049 12.4146V5.5176C2.25049 4.36278 2.60858 3.35313 3.30733 2.62712C4.00817 1.89895 5.00004 1.51001 6.16127 1.50286L6.16474 1.50284L11.9315 1.49985ZM11.9316 2.62485C11.9316 2.62485 11.9316 2.62485 11.9316 2.62485L6.1682 2.62784C6.16769 2.62784 6.16719 2.62784 6.16668 2.62785C5.25867 2.63377 4.57518 2.93214 4.1179 3.40726C3.65827 3.88481 3.37549 4.59491 3.37549 5.5176V12.4146C3.37549 13.3423 3.66053 14.0556 4.12378 14.5339C4.58487 15.0099 5.27474 15.3073 6.19233 15.3073C6.19239 15.3073 6.19228 15.3073 6.19233 15.3073L11.9558 15.3051C11.9563 15.3051 11.9567 15.3051 11.9572 15.3051C12.8652 15.2992 13.5489 15.0007 14.0065 14.5253C14.4663 14.0475 14.7492 13.3372 14.7492 12.4146V5.5176C14.7492 4.58998 14.4641 3.8767 14.0006 3.39839C13.5394 2.9223 12.8492 2.6249 11.9316 2.62485Z" fill="#6D7175"/>
<path d="M11.9315 1.49985C13.1018 1.49985 14.1018 1.88606 14.8086 2.61556C15.5133 3.34287 15.8742 4.35722 15.8742 5.5176V12.4146C15.8742 13.5695 15.5159 14.5793 14.817 15.3054C14.116 16.0338 13.124 16.4229 11.9627 16.4301L11.9592 16.4301L6.19297 16.4323M11.9315 1.49985V2.06235M11.9315 1.49985L6.16474 1.50284L6.16127 1.50286C5.00004 1.51001 4.00817 1.89895 3.30733 2.62712C2.60858 3.35313 2.25049 4.36278 2.25049 5.5176V12.4146C2.25049 13.5749 2.6112 14.5892 3.31569 15.3166C4.02233 16.0461 5.02264 16.4323 6.19297 16.4323M6.19297 16.4323L6.19249 15.8698M11.9316 2.62485C11.9316 2.62485 11.9316 2.62485 11.9316 2.62485ZM11.9316 2.62485C12.8492 2.6249 13.5394 2.9223 14.0006 3.39839C14.4641 3.8767 14.7492 4.58998 14.7492 5.5176V12.4146C14.7492 13.3372 14.4663 14.0475 14.0065 14.5253C13.5489 15.0007 12.8652 15.2992 11.9572 15.3051C11.9567 15.3051 11.9563 15.3051 11.9558 15.3051L6.19233 15.3073M11.9316 2.62485L6.1682 2.62784C6.16769 2.62784 6.16719 2.62784 6.16668 2.62785C5.25867 2.63377 4.57518 2.93214 4.1179 3.40726C3.65827 3.88481 3.37549 4.59491 3.37549 5.5176V12.4146C3.37549 13.3423 3.66053 14.0556 4.12378 14.5339C4.58487 15.0099 5.27474 15.3073 6.19233 15.3073M6.19233 15.3073C6.19228 15.3073 6.19239 15.3073 6.19233 15.3073Z" stroke="#6D7175" stroke-linecap="round" stroke-linejoin="round"/>
</svg>
