<svg width="17" height="16" viewBox="0 0 17 16" fill="none" xmlns="http://www.w3.org/2000/svg">
<path fill-rule="evenodd" clip-rule="evenodd" d="M13.433 3.51739C13.1066 3.51739 12.8109 3.32031 12.6718 3.01231C12.4206 2.45498 12.1013 1.74273 11.9123 1.35498C11.6331 0.778393 11.1808 0.442893 10.5543 0.43831C10.5438 0.437393 6.45576 0.437393 6.44526 0.43831C5.81876 0.442893 5.36726 0.778393 5.08726 1.35498C4.89913 1.74273 4.57976 2.45498 4.32863 3.01231C4.18951 3.32031 3.89288 3.51739 3.56738 3.51739C1.82088 3.51739 0.406006 4.99964 0.406006 6.82839V12.2697C0.406006 14.0976 1.82088 15.5807 3.56738 15.5807H13.433C15.1786 15.5807 16.5935 14.0976 16.5935 12.2697V6.82839C16.5935 4.99964 15.1786 3.51739 13.433 3.51739ZM5.71847 9.22327C5.7176 10.8302 6.96972 12.1447 8.50097 12.1438C10.0296 12.1419 11.2782 10.8329 11.2808 9.22969C11.2835 7.62002 10.0357 6.30827 8.50272 6.30644C6.96097 6.30461 5.70622 7.63836 5.71847 9.22327Z" fill="#1A1C1D"/>
</svg>
