<svg width="28" height="28" viewBox="0 0 28 28" fill="none" xmlns="http://www.w3.org/2000/svg">
<circle cx="14" cy="14" r="14" fill="#BABEC3"/>
<path fill-rule="evenodd" clip-rule="evenodd" d="M19.027 9.07977C18.7006 9.07977 18.4049 8.88269 18.2657 8.57469C18.0146 8.01735 17.6952 7.3051 17.5062 6.91735C17.2271 6.34077 16.7747 6.00527 16.1482 6.00069C16.1377 5.99977 12.0497 5.99977 12.0392 6.00069C11.4127 6.00527 10.9612 6.34077 10.6813 6.91735C10.4931 7.3051 10.1737 8.01735 9.92262 8.57469C9.7835 8.88269 9.48687 9.07977 9.16138 9.07977C7.41487 9.07977 6 10.562 6 12.3908V17.8321C6 19.6599 7.41487 21.1431 9.16138 21.1431H19.027C20.7726 21.1431 22.1875 19.6599 22.1875 17.8321V12.3908C22.1875 10.562 20.7726 9.07977 19.027 9.07977ZM11.3125 14.7857C11.3116 16.3926 12.5637 17.7071 14.095 17.7062C15.6236 17.7043 16.8722 16.3953 16.8748 14.7921C16.8775 13.1824 15.6297 11.8707 14.0967 11.8688C12.555 11.867 11.3002 13.2007 11.3125 14.7857Z" fill="#1A1C1D"/>
</svg>
