<svg width="18" height="18" viewBox="0 0 18 18" fill="none" xmlns="http://www.w3.org/2000/svg">
<path fill-rule="evenodd" clip-rule="evenodd" d="M2.88728 3.10461C2.4076 3.70783 2.15964 4.6501 2.15964 5.98277V12.0172C2.15964 13.2884 2.53151 14.2264 3.15129 14.8463C3.77115 15.4662 4.7098 15.8388 5.98324 15.8388H12.0027C13.2722 15.8388 14.2091 15.4664 14.8282 14.8465C15.4473 14.2266 15.8192 13.2884 15.8192 12.0172L15.8192 12.014L15.8404 8.17327C15.8404 8.17274 15.8404 8.17221 15.8404 8.17169C15.8402 6.80813 15.589 5.91945 15.1209 5.37049C14.6707 4.84242 13.9184 4.51419 12.6236 4.51419L10.4349 4.51419C9.69818 4.51272 9.00474 4.16554 8.56154 3.57627L7.85559 2.63611C7.63191 2.33748 7.28046 2.16117 6.90767 2.16117H5.36224C4.09669 2.16117 3.34494 2.52909 2.88728 3.10461ZM1.9801 2.38131C2.72209 1.44822 3.86154 1 5.36224 1H6.90767C7.64538 1 8.34004 1.34775 8.78273 1.93864C8.78278 1.93871 8.78268 1.93858 8.78273 1.93864L9.48786 2.87771C9.48791 2.87778 9.48781 2.87765 9.48786 2.87771C9.71236 3.17609 10.0636 3.35211 10.4367 3.35301H12.6236C14.1022 3.35301 15.2482 3.73139 16.0029 4.61654C16.7396 5.48059 17 6.71127 17 8.17327L17 8.17647L16.9788 12.0172C16.9788 12.0178 16.9788 12.0183 16.9788 12.0189C16.9785 13.5168 16.5353 14.7792 15.6482 15.6676C14.7607 16.5562 13.4994 17 12.0027 17H5.98324C4.48337 17 3.22031 16.5565 2.33178 15.6678C1.44318 14.7791 1 13.5159 1 12.0172V5.98277C1 4.54553 1.26013 3.28671 1.9801 2.38131Z" fill="#6D7175"/>
<path d="M8.78273 1.93864C8.34004 1.34775 7.64538 1 6.90767 1H5.36224C3.86154 1 2.72209 1.44822 1.9801 2.38131C1.26013 3.28671 1 4.54553 1 5.98277V12.0172C1 13.5159 1.44318 14.7791 2.33178 15.6678C3.22031 16.5565 4.48337 17 5.98324 17H12.0027C13.4994 17 14.7607 16.5562 15.6482 15.6676C16.5353 14.7792 16.9785 13.5168 16.9788 12.0189C16.9788 12.0183 16.9788 12.0178 16.9788 12.0172L17 8.17647L17 8.17327C17 6.71127 16.7396 5.48059 16.0029 4.61654C15.2482 3.73139 14.1022 3.35301 12.6236 3.35301H10.4367C10.0636 3.35211 9.71236 3.17609 9.48786 2.87771M8.78273 1.93864C8.78268 1.93858 8.78278 1.93871 8.78273 1.93864ZM8.78273 1.93864L9.48786 2.87771M9.48786 2.87771C9.48781 2.87765 9.48791 2.87778 9.48786 2.87771ZM2.15964 5.98277C2.15964 4.6501 2.4076 3.70783 2.88728 3.10461C3.34494 2.52909 4.09669 2.16117 5.36224 2.16117H6.90767C7.28046 2.16117 7.63191 2.33748 7.85559 2.63611L8.56154 3.57627C9.00474 4.16554 9.69818 4.51272 10.4349 4.51419L12.6236 4.51419C13.9184 4.51419 14.6707 4.84242 15.1209 5.37049C15.589 5.91945 15.8402 6.80813 15.8404 8.17169C15.8404 8.17221 15.8404 8.17274 15.8404 8.17327L15.8192 12.014L15.8192 12.0172C15.8192 13.2884 15.4473 14.2266 14.8282 14.8465C14.2091 15.4664 13.2722 15.8388 12.0027 15.8388H5.98324C4.7098 15.8388 3.77115 15.4662 3.15129 14.8463C2.53151 14.2264 2.15964 13.2884 2.15964 12.0172V5.98277Z" stroke="#6D7175" stroke-linecap="round" stroke-linejoin="round"/>
<path fill-rule="evenodd" clip-rule="evenodd" d="M4 11.8C4 11.3582 4.29058 11 4.64903 11H12.951C13.3094 11 13.6 11.3582 13.6 11.8C13.6 12.2418 13.3094 12.6 12.951 12.6H4.64903C4.29058 12.6 4 12.2418 4 11.8Z" fill="#6D7175" stroke="#6D7175" stroke-linecap="round" stroke-linejoin="round"/>
</svg>
