<svg width="46" height="46" viewBox="0 0 46 46" fill="none" xmlns="http://www.w3.org/2000/svg">
<path d="M37.147 8.91744C36.2429 7.99253 35.1695 7.25882 33.988 6.75824C32.8066 6.25765 31.5402 6 30.2614 6C28.9825 6 27.7162 6.25765 26.5348 6.75824C25.3533 7.25882 24.2799 7.99253 23.3758 8.91744L21.4995 10.8361L19.6233 8.91744C17.7971 7.05005 15.3203 6.00097 12.7377 6.00097C10.1551 6.00097 7.67827 7.05005 5.8521 8.91744C4.02593 10.7848 3 13.3175 3 15.9584C3 18.5993 4.02593 21.132 5.8521 22.9994L7.72837 24.918L21.4995 39L35.2707 24.918L37.147 22.9994C38.0515 22.0749 38.769 20.9773 39.2585 19.7692C39.748 18.561 40 17.2661 40 15.9584C40 14.6507 39.748 13.3558 39.2585 12.1477C38.769 10.9396 38.0515 9.84192 37.147 8.91744V8.91744Z" stroke="#EB1D24" stroke-width="3" stroke-linecap="round" stroke-linejoin="round"/>
</svg>
